HIERARCHY
ROOT Hips
{
  OFFSET 0.0 0.0 0.0
  CHANNELS 6 XPOSITION YPOSITION ZPOSITION ZROTATION XROTATION YROTATION 
  JOINT LeftUpLeg
  {
    OFFSET 0.089458 -0.0866707 0.00101652
    CHANNELS 3 ZROTATION XROTATION YROTATION 
    JOINT LeftLeg
    {
      OFFSET 0.0 -0.444227 0.013727
      CHANNELS 3 ZROTATION XROTATION YROTATION 
      JOINT LeftFoot
      {
        OFFSET -0.00253549 -0.420924 -0.0146059
        CHANNELS 3 ZROTATION XROTATION YROTATION 
        End Site
        {
          OFFSET -0.0004 -0.0441509 0.084991
        }
      }
    }
  }
  JOINT Spine
  {
    OFFSET 0.0 0.118905 0.0
    CHANNELS 3 ZROTATION XROTATION YROTATION 
    JOINT Spine1
    {
      OFFSET 0.0 0.256574 0.00127663
      CHANNELS 3 ZROTATION XROTATION YROTATION 
      End Site
      {
        OFFSET -0.0029 0.2150836 0.02525291
      }
      JOINT RightArm
      {
        OFFSET -0.162727 -0.05365632 0.00102123
        CHANNELS 3 ZROTATION XROTATION YROTATION 
        JOINT RightForeArm
        {
          OFFSET -0.26364 0.00099144 -0.0142434
          CHANNELS 3 ZROTATION XROTATION YROTATION 
          End Site
          {
            OFFSET -0.220324 0.00085362 0.0102216
          }
        }
      }
      JOINT LeftArm
      {
        OFFSET 0.162727 -0.0536563199 0.00102123
        CHANNELS 3 ZROTATION XROTATION YROTATION 
        JOINT LeftForeArm
        {
          OFFSET 0.262597 0.00099144 -0.0142434
          CHANNELS 3 ZROTATION XROTATION YROTATION 
          End Site
          {
            OFFSET 0.220902 0.00085362 0.0102216
          }
        }
      }
    }
  }
  JOINT RightUpLeg
  {
    OFFSET -0.089458 -0.0866707 0.00101652
    CHANNELS 3 ZROTATION XROTATION YROTATION 
    JOINT RightLeg
    {
      OFFSET 0.0 -0.444227 0.013727
      CHANNELS 3 ZROTATION XROTATION YROTATION 
      JOINT RightFoot
      {
        OFFSET 0.00253549 -0.420924 -0.0146059
        CHANNELS 3 ZROTATION XROTATION YROTATION 
        End Site
        {
          OFFSET 0.0004 -0.0441509 0.084991
        }
      }
    }
  }
}
MOTION
Frames: 17
Frame Time: 0.033333
1.78797734175 0.985342856983 0.0836510642671 -3.23269737143 0.566925924874 -92.3795926 -1.76744997251 2.67081997021 1.69876996581 0.143959003342 8.54788014721 19.0232004046 -1.34815469121 -35.6466104292 0.0107590495505 1.43303996205 5.25050984896 0.836221981075 -1.67296999344 -1.21618999364 1.25000999548 78.5850488541 -11.9173063799 5.54667496222 6.75628993829 40.7445987389 10.074799672 -73.3047798709 3.50311075053 1.69757948518 -2.23560992125 27.8197002914 -19.6184992021 0.106691997127 1.78883999056 -3.40007008982 0.0441629993223 9.74554015779 -11.1674002741 2.64886646155 -35.424479017 -0.105453198246 
1.78795867525 0.980832470598 0.0835325524941 -3.23159643031 0.56218134464 -92.3722228259 -1.76382484961 2.66617501469 1.70100066291 0.144532405727 8.55731007713 19.0142118757 -1.34533083487 -35.6495815615 0.0107744691695 1.44308023341 5.25807471035 0.834005531329 -1.68299831197 -1.21668037987 1.24946912987 78.5952190058 -11.9007192655 5.5444760682 6.74658295882 40.6755386962 10.100459839 -73.316049683 3.6114932595 1.65057561742 -2.19252359386 27.7091758778 -19.707406067 0.108872895205 1.7932510121 -3.3985561357 0.0469157956765 9.73858702522 -11.1718185527 2.65105318931 -35.4198822997 -0.105424490107 
1.78797643857 0.98074572341 0.083373262285 -3.24584996789 0.553385074845 -92.3433652766 -1.76503614097 2.66882000544 1.69822088263 0.15211857144 8.57888664472 18.9921418269 -1.32993750947 -35.6572313734 0.010870538715 1.47786734734 5.3037460509 0.819742282073 -1.72335757961 -1.23264978904 1.24254086345 78.6413910846 -11.8348446523 5.53893080836 6.71097035248 40.4423662833 10.1914131993 -73.3704726304 4.0100241254 1.43207775915 -1.96578692662 27.3450721535 -20.1291463426 0.110800462634 1.81652381448 -3.39726224174 0.0476834615814 9.72521266105 -11.1875467708 2.66209717831 -35.4108527896 -0.105041379194 
1.78810451812 0.980741398033 0.083270491286 -3.27893028159 0.530803135427 -92.3278607472 -1.79087730792 2.68962369444 1.67788783636 0.164644764852 8.59000875401 18.999873601 -1.31334986147 -35.6586793735 0.011116714841 1.53791367477 5.42118688481 0.79198279246 -1.8045801615 -1.32363313815 1.22982582598 78.713039769 -11.7109467283 5.53075976768 6.65766072601 40.2123152667 10.3093739813 -73.4519772777 4.60176610188 1.11516498579 -1.5480673913 26.8651898926 -20.9078203513 0.100535542085 1.83768438086 -3.39792861207 0.0294021467729 9.73961582246 -11.1970518328 2.69002881003 -35.4127174313 -0.103579025021 
1.78833059118 0.980723911438 0.083227963768 -3.29753806477 0.497014029521 -92.3667450142 -1.83168683444 2.69297795765 1.65164080676 0.16595289282 8.59679369317 19.075352314 -1.3198701308 -35.6522931466 0.0113121331232 1.62159245673 5.5878746633 0.774428779407 -1.90716191887 -1.48672439515 1.23101374529 78.7687741126 -11.5738204354 5.53310508389 6.60380340375 40.1676219239 10.3963811998 -73.513729018 5.1600572269 0.844235660602 -1.12185846445 26.4849959502 -21.7820965179 0.0778537378316 1.80949021374 -3.39249498315 -0.00656796143246 9.7977407323 -11.1674557694 2.72149719908 -35.4266749229 -0.101492002023 
1.7885189693 0.980710707831 0.0831608489205 -3.28603986819 0.471726748223 -92.4462484161 -1.85845989533 2.65789212966 1.63985478174 0.155093425649 8.62558977072 19.1776531799 -1.29159762995 -35.6570845243 0.0179153777521 1.7148196297 5.72204433803 0.785720629569 -1.97309629625 -1.58431776655 1.25475110726 78.7905897368 -11.5012402839 5.5701242823 6.57108594385 40.174195981 10.4409635521 -73.5535080397 5.60954173089 0.497408953193 -0.826280587378 26.2711529726 -22.4619735479 0.0585766961679 1.74859278071 -3.37990310252 -0.0339078237991 9.85196901921 -11.1013642977 2.75983611811 -35.409456016 -0.0945747279408 
1.78851173796 0.980721138092 0.0830220270524 -3.27229091083 0.458879215755 -92.5011699672 -1.86787509766 2.63527118346 1.640248905 0.147631043774 8.64859897048 19.2314118913 -1.21578071589 -35.6760246389 0.0263852275371 1.78616287657 5.78052228327 0.799788471382 -1.97089057204 -1.54472657503 1.2697468943 78.7812665286 -11.5029580765 5.63298720899 6.60617860203 40.0665863506 10.4167778522 -73.5853708722 5.92377354828 -0.0326159342053 -0.68879293481 26.2290516865 -22.7269712273 0.0480108837747 1.72971936721 -3.37884677108 -0.0372807799856 9.8467114811 -11.0439420435 2.78664418372 -35.3648617109 -0.0861638835864 
1.78829615674 0.980748287006 0.082873733653 -3.28244441392 0.444561351666 -92.4950432875 -1.87556162179 2.67346261309 1.64550302802 0.142431415526 8.62150617137 19.2127552295 -1.13177301764 -35.6906924701 0.0298635347224 1.83089154429 5.80478140766 0.770768811868 -1.9566549637 -1.47629490973 1.23856665385 78.7568144513 -11.4913330946 5.68216457101 6.73388819847 39.8810374316 10.2996947495 -73.5926586841 6.09230718539 -0.586486252636 -0.666355016335 26.3127573623 -22.6278925032 0.0365294525068 1.78432160698 -3.39852454608 -0.0305892489918 9.78581692955 -11.0312822879 2.81013427149 -35.328651463 -0.0817363935499 
1.78797850941 0.980791314394 0.0828065502978 -3.29853441861 0.426688347433 -92.4680640403 -1.88064541697 2.74199993287 1.66499841563 0.117437432156 8.55478546846 19.1668409904 -1.05247879025 -35.6852795452 0.0341230781446 1.87511403096 5.83091285765 0.700467542371 -1.98723948359 -1.48096964061 1.17213377939 78.7339333176 -11.4432861288 5.70242077766 6.90605848443 39.7813781414 10.1195100903 -73.5360705668 6.27859760679 -0.947777219633 -0.722614057228 26.3422381663 -22.4424170088 0.0240581157193 1.86028569027 -3.41501091519 -0.0374597322759 9.71158557988 -11.0465938645 2.86494355137 -35.2956616493 -0.078699013762 
1.78764333023 0.980837953885 0.0828089901665 -3.2869544732 0.411376850903 -92.4806520789 -1.87610504872 2.77609260867 1.70011818112 0.0694663055515 8.50257294112 19.1480630928 -1.0026478645 -35.663679072 0.0387111243175 1.91624884523 5.84011269557 0.642303679111 -2.0136989961 -1.51357440239 1.11648972232 78.7115371273 -11.4772458294 5.70987806357 7.03574712818 39.8686167326 9.94510633251 -73.4196226716 6.74942389062 -1.12568731909 -0.843866937108 26.0985779979 -22.3628248144 0.0164912549622 1.88958207917 -3.40667701718 -0.0612948913441 9.66438982649 -11.0406567225 2.91764102214 -35.2617292695 -0.0780813485496 
1.78733004814 0.980865681576 0.0828187505415 -3.25381396847 0.392504424576 -92.5332581959 -1.87973422705 2.76827481683 1.7240591681 0.0250628172029 8.48834053444 19.1709817926 -0.961274313764 -35.6442335234 0.0426207539468 1.90334533723 5.83304387667 0.630669198912 -1.94491984494 -1.5166887552 1.09148183845 78.6699754262 -11.6624276257 5.70524207267 7.0858124148 40.1182396562 9.81579719114 -73.3069108899 7.42298299563 -1.24618231478 -1.01407188949 25.6764910902 -22.3245518494 -0.00137011639575 1.86265533903 -3.39772093164 -0.0826681674228 9.67218221856 -10.984790044 2.95201160126 -35.2353818148 -0.0790125688037 
1.78706130398 0.980861829803 0.0828573719982 -3.23396800006 0.360583428769 -92.5797171427 -1.91196012677 2.76882080508 1.71637221708 0.001806778677 8.47793986388 19.2153131354 -0.913558078613 -35.6378063154 0.0458614052336 1.81195911368 5.86047477015 0.641347932875 -1.78469972199 -1.536752009 1.07344555001 78.6033264403 -11.8964862557 5.67442767423 7.09903950301 40.4323668863 9.71253326863 -73.2503637538 7.93177915483 -1.31456179316 -1.20278361296 25.3749570214 -22.176032801 -0.0493314881776 1.82697400391 -3.42732105051 -0.0840307301313 9.72357683074 -10.8960812546 2.97529016661 -35.2366624752 -0.0793075942893 
1.78682179798 0.980833759852 0.083019590539 -3.23266193982 0.328446721713 -92.5936712191 -1.95748974089 2.79593558887 1.69297913933 -0.0093532286994 8.44738415885 19.2524403362 -0.886803000335 -35.6449950895 0.0474414200877 1.69867274234 5.93428350187 0.63463444389 -1.62819778326 -1.61249539181 1.03847242014 78.5366911148 -12.065155216 5.63185467825 7.1303802529 40.7017222264 9.60641603459 -73.2291560164 8.10485444085 -1.27309624832 -1.39956072261 25.3181964418 -21.8737781472 -0.112324208469 1.81463462685 -3.4860209769 -0.0681058572668 9.77406729663 -10.8189146311 2.98130777671 -35.2696761946 -0.0789637769739 
1.78656051234 0.980803498111 0.083363476953 -3.21660267098 0.319348456171 -92.5896277472 -1.98789582208 2.80809204493 1.6742604723 -0.0164534821485 8.41822693506 19.2707896394 -0.897787598707 -35.6517740522 0.0465477091782 1.63904924631 5.98980525586 0.608808804947 -1.54385006966 -1.68096697102 0.99688030335 78.4929437531 -12.1787079647 5.60412368333 7.17845283183 40.8578364452 9.5100062069 -73.185524768 8.05423505513 -1.17611076375 -1.63369886031 25.4364201862 -21.4511601923 -0.156697599629 1.80273323566 -3.52933334086 -0.0493578951296 9.79862097293 -10.7812111331 2.96775902928 -35.3081677257 -0.0804026523721 
1.78625081655 0.980788238224 0.083861703273 -3.17044425257 0.328035416259 -92.5916768039 -2.01130394758 2.78413152788 1.65120495532 -0.0144056576997 8.40308696699 19.2919119994 -0.920472364487 -35.6418634478 0.0437876090572 1.62709054557 5.979281215 0.595270409517 -1.5158302858 -1.6728124722 0.978424385161 78.4651585436 -12.289421916 5.59177768952 7.20860640947 40.9158862229 9.45265823109 -73.1094774418 7.87746890564 -1.13763833587 -1.92717928234 25.6912904026 -20.9266767961 -0.184947849005 1.76025575561 -3.54849052737 -0.0375843532128 9.8209625217 -10.761220877 2.95170018732 -35.3284533875 -0.0847700113976 
1.78590974936 0.980779076839 0.0844417898952 -3.1233872374 0.325179730175 -92.6111496732 -2.05708649215 2.7696041424 1.61298054868 -0.00827493342827 8.36930314381 19.3456894938 -0.937662563246 -35.6190711065 0.0403459307623 1.58730010462 5.93703265301 0.614981321606 -1.48932637706 -1.61067941526 0.994851417002 78.4392789568 -12.4026066883 5.58659784481 7.21582933451 40.9530697728 9.42388349789 -73.0430538521 7.53830903221 -1.16857183573 -2.25097229735 26.1423185293 -20.325941168 -0.229473145173 1.70311674089 -3.57447384764 -0.0362554978881 9.86903936949 -10.7116866376 2.93292869305 -35.3450883132 -0.0903714935586 
1.78558573222 0.980759329984 0.0850554716221 -3.09960024984 0.308642508173 -92.6431354491 -2.11513691023 2.79811954185 1.58229699105 -0.0174435877713 8.29766128961 19.4148536969 -0.96382485581 -35.6057829735 0.037190583469 1.498016939 5.92232298686 0.652617051314 -1.43994368247 -1.57354645151 1.02497351174 78.4181053704 -12.5127614179 5.59120438052 7.224133137 41.0146951546 9.38852019346 -73.0096610573 7.0602576889 -1.1804568985 -2.55582562468 26.7814944621 -19.7171288413 -0.289834274953 1.66639593636 -3.61286143176 -0.0444739163368 9.92395323665 -10.62922491 2.90769349194 -35.3809194856 -0.0947905058897 
